<?xml version="1.0" encoding="UTF-8"?>
<svg xmlns="http://www.w3.org/2000/svg" xmlns:xlink="http://www.w3.org/1999/xlink" viewBox="0 0 100 100" width="100px" height="100px">
<g id="surface117508444">
<path style=" stroke:none;fill-rule:nonzero;fill:rgb(100%,100%,100%);fill-opacity:1;" d="M 80 0 C 69.0625 0 60.132812 8.84375 60 19.75 L 31.8125 33.875 C 28.5 31.4375 24.414062 30 20 30 C 8.976562 30 0 38.976562 0 50 C 0 61.023438 8.976562 70 20 70 C 24.414062 70 28.5 68.5625 31.8125 66.125 L 60 80.25 C 60.132812 91.15625 69.0625 100 80 100 C 91.023438 100 100 91.023438 100 80 C 100 68.976562 91.023438 60 80 60 C 75.75 60 71.804688 61.351562 68.5625 63.625 L 41.25 50 L 68.5625 36.375 C 71.804688 38.648438 75.75 40 80 40 C 91.023438 40 100 31.023438 100 20 C 100 8.976562 91.023438 0 80 0 Z M 80 4 C 88.859375 4 96 11.140625 96 20 C 96 28.859375 88.859375 36 80 36 C 76.726562 36 73.71875 34.984375 71.1875 33.3125 C 70.9375 32.476562 70.179688 31.898438 69.3125 31.875 C 69.304688 31.867188 69.257812 31.882812 69.25 31.875 C 66.460938 29.351562 64.585938 25.820312 64.125 21.875 C 64.546875 21.171875 64.5 20.28125 64 19.625 C 64.203125 10.945312 71.265625 4 80 4 Z M 60.4375 24 C 61.179688 27.617188 62.898438 30.875 65.3125 33.5 L 39.625 46.375 C 38.945312 42.71875 37.3125 39.421875 34.9375 36.75 Z M 20 34 C 23.703125 34 27.109375 35.21875 29.8125 37.3125 C 29.835938 37.328125 29.851562 37.359375 29.875 37.375 C 29.890625 37.414062 29.914062 37.460938 29.9375 37.5 C 30.109375 37.710938 30.320312 37.875 30.5625 38 C 30.570312 38.007812 30.617188 37.992188 30.625 38 C 33.617188 40.65625 35.59375 44.445312 35.9375 48.6875 C 35.710938 49.234375 35.734375 49.851562 36 50.375 C 35.960938 50.539062 35.9375 50.703125 35.9375 50.875 C 35.695312 55.3125 33.679688 59.257812 30.5625 62 C 30.375 62.117188 30.203125 62.265625 30.0625 62.4375 C 27.3125 64.664062 23.828125 66 20 66 C 11.140625 66 4 58.859375 4 50 C 4 41.140625 11.140625 34 20 34 Z M 39.625 53.625 L 65.3125 66.5 C 62.898438 69.125 61.179688 72.382812 60.4375 76 L 34.9375 63.25 C 37.3125 60.578125 38.945312 57.28125 39.625 53.625 Z M 80 64 C 88.859375 64 96 71.140625 96 80 C 96 88.859375 88.859375 96 80 96 C 71.140625 96 64 88.859375 64 80 C 64 75.1875 66.09375 70.867188 69.4375 67.9375 C 69.484375 67.898438 69.523438 67.859375 69.5625 67.8125 C 69.570312 67.804688 69.617188 67.820312 69.625 67.8125 C 69.945312 67.679688 70.226562 67.460938 70.4375 67.1875 C 73.109375 65.195312 76.398438 64 80 64 Z M 80 64 "/>
</g>
</svg>
